<svg width="24" height="24" viewBox="0 0 24 24" fill="none" xmlns="http://www.w3.org/2000/svg">
<g clip-path="url(#clip0)">
<path d="M10 23.8667C4.33333 22.8667 0 17.9333 0 12C0 5.4 5.4 0 12 0C18.6 0 24 5.4 24 12C24 17.9333 19.6667 22.8667 14 23.8667L13.3333 23.3333H10.6667L10 23.8667Z" fill="url(#paint0_linear)"/>
<path d="M16.6667 15.3333L17.2 12H14V9.66667C14 8.73334 14.3333 8.00001 15.8 8.00001H17.3333V4.93334C16.4667 4.80001 15.5333 4.66667 14.6667 4.66667C11.9333 4.66667 10 6.33334 10 9.33334V12H7V15.3333H10V23.8C10.6667 23.9333 11.3333 24 12 24C12.6667 24 13.3333 23.9333 14 23.8V15.3333H16.6667Z" fill="white"/>
</g>
<defs>
<linearGradient id="paint0_linear" x1="12" y1="23.1693" x2="12" y2="0" gradientUnits="userSpaceOnUse">
<stop stop-color="#0062E0"/>
<stop offset="1" stop-color="#19AFFF"/>
</linearGradient>
<clipPath id="clip0">
<rect width="24" height="24" fill="white"/>
</clipPath>
</defs>
</svg>
